<?xml version="1.0" encoding="utf-8"?>
<!-- Generator: Adobe Illustrator 27.1.1, SVG Export Plug-In . SVG Version: 6.00 Build 0)  -->
<svg version="1.1" id="Ebene_1" xmlns="http://www.w3.org/2000/svg" xmlns:xlink="http://www.w3.org/1999/xlink" x="0px" y="0px"
	 viewBox="0 0 90 47" style="enable-background:new 0 0 90 47;" xml:space="preserve">
<style type="text/css">
	.st0{fill:none;stroke:#000000;stroke-width:2;stroke-linecap:round;stroke-linejoin:round;stroke-miterlimit:10;}
</style>
<g>
	<path class="st0" d="M57,28.83c0,1.51-0.64,3.02-1.91,4.17l-9.93,9l-9.19-8.33l-0.63-0.58c-1.26-1.15-1.9-2.66-1.9-4.16
		c0-1.51,0.64-3.02,1.9-4.16c2.54-2.3,6.65-2.3,9.19,0l0.63,0.57l0.74-0.67c2.54-2.3,6.66-2.3,9.19,0C56.36,25.82,57,27.33,57,28.83
		z"/>
	<line class="st0" x1="86" y1="38" x2="56.12" y2="32.47"/>
	<line class="st0" x1="4.07" y1="37.67" x2="33.96" y2="32.14"/>
	<path class="st0" d="M45,23c0-1.67,0-3.33,0-5c0.6,0.11,3.04,0.5,5-1c2.58-1.98,2.97-6.21,1-9c-2.09-2.96-6.17-3.36-9-2
		c-2.97,1.43-3.86,4.48-4,5"/>
</g>
<g>
</g>
<g>
</g>
<g>
</g>
<g>
</g>
<g>
</g>
<g>
</g>
<g>
</g>
<g>
</g>
<g>
</g>
<g>
</g>
<g>
</g>
<g>
</g>
<g>
</g>
<g>
</g>
<g>
</g>
</svg>
