<?xml version="1.0" encoding="utf-8"?>
<!-- Generator: Adobe Illustrator 27.1.1, SVG Export Plug-In . SVG Version: 6.00 Build 0)  -->
<svg version="1.1" id="Ebene_1" xmlns="http://www.w3.org/2000/svg" xmlns:xlink="http://www.w3.org/1999/xlink" x="0px" y="0px"
	 viewBox="0 0 90 59" style="enable-background:new 0 0 90 59;" xml:space="preserve">
<style type="text/css">
	.st0{fill:none;stroke:#000000;stroke-width:2;stroke-linecap:round;stroke-linejoin:round;stroke-miterlimit:10;}
</style>
<g>
	<path class="st0" d="M56.79,28.83c0,1.51-0.64,3.02-1.91,4.17l-9.93,9l-9.19-8.33l-0.63-0.58c-1.26-1.15-1.9-2.66-1.9-4.16
		c0-1.51,0.64-3.02,1.9-4.16c2.54-2.3,6.65-2.3,9.19,0l0.63,0.57l0.74-0.67c2.54-2.3,6.66-2.3,9.19,0
		C56.15,25.82,56.79,27.33,56.79,28.83z"/>
	<line class="st0" x1="85.79" y1="38" x2="55.91" y2="32.47"/>
	<line class="st0" x1="3.86" y1="37.67" x2="33.74" y2="32.14"/>
	<path class="st0" d="M44.79,23c0-1.67,0-3.33,0-5c0.6,0.11,3.04,0.5,5-1c2.58-1.98,2.97-6.21,1-9c-2.09-2.96-6.17-3.36-9-2
		c-2.97,1.43-3.86,4.48-4,5"/>
</g>
<g>
	<path d="M8.52,44.66c-1.22,0-2.06,0.63-2.06,1.61c0,2.36,5.2,1.11,5.2,4.55c0,1.41-1.22,2.35-3.14,2.35c-1.7,0-2.78-0.61-3.31-1.06
		l0.54-0.68c0.43,0.36,1.27,0.97,2.77,0.97c1.42,0,2.28-0.64,2.28-1.59c0-2.73-5.22-1.35-5.22-4.53c0-1.43,1.21-2.39,2.93-2.39
		c2.24,0,2.84,1.38,3.06,2.06l-0.83,0.21C10.62,45.69,10.06,44.66,8.52,44.66z"/>
	<path d="M18.98,49.47c0,0.35-0.04,0.56-0.04,0.56H13.9c0.07,1.47,1,2.43,2.48,2.43c0.95,0,1.57-0.4,1.93-0.85l0.53,0.49
		c-0.6,0.74-1.5,1.07-2.52,1.07c-2.02,0-3.28-1.32-3.28-3.31c0-2,1.28-3.34,3.12-3.34C17.91,46.52,18.98,47.75,18.98,49.47z
		 M13.93,49.4h4.19v-0.06c0-1.31-0.78-2.11-1.96-2.11C14.96,47.23,14.08,48.1,13.93,49.4z"/>
	<path d="M26.08,48.72c0,0.24-0.04,0.42-0.04,0.42l-0.79,0.06c0.01-0.04,0.03-0.18,0.03-0.35c0-0.93-0.68-1.61-1.81-1.61
		c-1.39,0-2.34,1.04-2.34,2.63c0,1.56,0.92,2.6,2.45,2.6c1.1,0,1.7-0.47,2.03-0.85l0.5,0.53c-0.58,0.68-1.49,1.03-2.56,1.03
		c-1.99,0-3.27-1.34-3.27-3.3c0-1.99,1.29-3.35,3.17-3.35C25.07,46.52,26.08,47.47,26.08,48.72z"/>
	<path d="M33.9,49.86c0,1.97-1.29,3.31-3.24,3.31c-1.95,0-3.24-1.34-3.24-3.31s1.29-3.34,3.24-3.34
		C32.6,46.52,33.9,47.89,33.9,49.86z M33.04,49.86c0-1.54-0.95-2.63-2.38-2.63c-1.43,0-2.39,1.08-2.39,2.63
		c0,1.54,0.96,2.6,2.39,2.6C32.09,52.46,33.04,51.41,33.04,49.86z"/>
	<path d="M41.39,49.11v3.99h-0.85v-3.99c0-1.11-0.68-1.88-1.81-1.88c-1.49,0-2.24,1.34-2.24,2.31v3.56h-0.85v-6.51l0.6-0.03
		c0.08,0.54,0.13,1.24,0.13,1.66h0.03c0.35-0.89,1.15-1.7,2.46-1.7C40.42,46.52,41.39,47.58,41.39,49.11z"/>
	<path d="M49.42,43.31v9.79l-0.61,0.03c-0.06-0.53-0.11-1.27-0.1-1.67h-0.01c-0.35,0.95-1.22,1.71-2.56,1.71
		c-1.81,0-3.06-1.34-3.06-3.34c0-1.99,1.25-3.32,3.1-3.32c1.18,0,2,0.58,2.41,1.36v-4.56H49.42z M48.58,50.13v-0.58
		c0-1-0.76-2.31-2.36-2.31c-1.38,0-2.28,1.04-2.28,2.6c0,1.57,0.92,2.62,2.34,2.62C47.82,52.45,48.58,51.13,48.58,50.13z"/>
	<path d="M54.64,43.86c0.17,0,0.28,0.04,0.35,0.11c0.07,0.07,0.1,0.2,0.1,0.38v7.95c0.06,0.07,0.14,0.11,0.25,0.11
		c0.16,0,0.24-0.1,0.24-0.31v-2.66c0-0.18,0.04-0.3,0.11-0.38c0.07-0.07,0.2-0.11,0.38-0.11h1.71c0.52,0,0.9,0.14,1.15,0.42
		c0.25,0.28,0.38,0.72,0.38,1.3v1.93c0,0.18-0.03,0.3-0.1,0.38c-0.07,0.07-0.19,0.11-0.35,0.11h-7.02c-0.17,0-0.29-0.04-0.35-0.11
		c-0.07-0.07-0.1-0.2-0.1-0.38v-7.18c0-0.23-0.02-0.4-0.06-0.51c-0.04-0.11-0.1-0.2-0.19-0.29c-0.09-0.09-0.25-0.21-0.47-0.35
		c-0.05-0.03-0.07-0.07-0.07-0.13V44c0-0.09,0.06-0.14,0.17-0.14H54.64z"/>
	<path d="M63.75,53.27c-1.31,0-2.3-0.31-2.98-0.95s-1.02-1.55-1.02-2.75c0-1.21,0.34-2.12,1.02-2.75c0.68-0.63,1.68-0.95,2.98-0.95
		c1.31,0,2.3,0.31,2.98,0.95c0.68,0.63,1.02,1.55,1.02,2.75c0,1.21-0.34,2.12-1.02,2.75C66.05,52.96,65.06,53.27,63.75,53.27z
		 M63.75,52.63c0.17,0,0.25-0.13,0.25-0.38v-5.37c0-0.25-0.08-0.38-0.25-0.38c-0.17,0-0.25,0.13-0.25,0.38v5.37
		C63.5,52.51,63.58,52.63,63.75,52.63z"/>
	<path d="M68.06,47.25c-0.06-0.16-0.13-0.29-0.23-0.39c-0.1-0.1-0.24-0.21-0.44-0.33c-0.09-0.06-0.14-0.12-0.14-0.18v-0.17
		c0-0.09,0.06-0.14,0.17-0.14h2.17c0.63,0,1.1,0.05,1.4,0.15c0.3,0.1,0.54,0.27,0.71,0.51c0.17,0.24,0.34,0.6,0.49,1.07l1.33,4.03
		c0.05,0.05,0.1,0.07,0.17,0.07c0.14,0,0.21-0.08,0.21-0.24c0-0.08-0.04-0.24-0.11-0.46l-1.25-3.82c-0.06-0.2-0.12-0.36-0.17-0.46
		c-0.05-0.1-0.1-0.19-0.15-0.26c-0.08-0.1-0.14-0.17-0.16-0.2s-0.03-0.07-0.03-0.12v-0.13c0-0.09,0.06-0.14,0.17-0.14h3.94
		c0.33,0,0.5,0.12,0.5,0.36c0,0.41-0.61,2.15-1.84,5.21c-0.2,0.51-0.37,0.86-0.49,1.04c-0.12,0.18-0.26,0.3-0.42,0.36
		c-0.15,0.06-0.38,0.09-0.69,0.09H71.1c-0.32,0-0.57-0.05-0.74-0.16c-0.17-0.11-0.3-0.3-0.4-0.58L68.06,47.25z"/>
	<path d="M79.96,49.89c0,0.21,0.18,0.41,0.54,0.59c0.36,0.18,0.76,0.27,1.21,0.27c0.88,0,1.6-0.3,2.17-0.89
		c0.06-0.06,0.09-0.09,0.12-0.1c0.02-0.01,0.06-0.02,0.1-0.02h0.17c0.06,0,0.11,0.02,0.13,0.07c0.02,0.05,0.03,0.13,0.03,0.25
		c0,0.57-0.16,1.11-0.47,1.59c-0.31,0.49-0.75,0.88-1.32,1.17c-0.57,0.3-1.21,0.44-1.91,0.44c-0.75,0-1.43-0.15-2.03-0.46
		c-0.6-0.31-1.08-0.74-1.44-1.31c-0.36-0.57-0.54-1.21-0.54-1.93c0-0.71,0.17-1.35,0.5-1.91c0.33-0.56,0.81-0.99,1.43-1.31
		c0.62-0.32,1.34-0.48,2.16-0.48c0.62,0,1.18,0.1,1.68,0.29c0.5,0.19,0.89,0.47,1.17,0.83c0.29,0.36,0.43,0.78,0.43,1.25
		c0,0.6-0.22,1.1-0.65,1.49c-0.44,0.39-0.99,0.59-1.65,0.59c-0.67,0-1.21-0.22-1.63-0.67c-0.06,0-0.1,0.02-0.15,0.06
		C79.98,49.77,79.96,49.83,79.96,49.89z M80.38,48.93c0.06,0.07,0.13,0.11,0.22,0.11c0.17,0,0.25-0.09,0.25-0.28v-1.97
		c0-0.19-0.08-0.28-0.25-0.28c-0.09,0-0.17,0.04-0.22,0.11V48.93z"/>
</g>
<g>
</g>
<g>
</g>
<g>
</g>
<g>
</g>
<g>
</g>
<g>
</g>
<g>
</g>
<g>
</g>
<g>
</g>
<g>
</g>
<g>
</g>
<g>
</g>
<g>
</g>
<g>
</g>
<g>
</g>
</svg>
