<?xml version="1.0" encoding="utf-8"?>
<!-- Generator: Adobe Illustrator 27.1.1, SVG Export Plug-In . SVG Version: 6.00 Build 0)  -->
<svg version="1.1" id="Ebene_1" xmlns="http://www.w3.org/2000/svg" xmlns:xlink="http://www.w3.org/1999/xlink" x="0px" y="0px"
	 viewBox="0 0 109 21" style="enable-background:new 0 0 109 21;" xml:space="preserve">
<g>
	<path d="M7.43,4.86c-1.58,0-2.67,0.81-2.67,2.09c0,3.06,6.73,1.44,6.73,5.89c0,1.82-1.58,3.04-4.07,3.04c-2.2,0-3.6-0.79-4.29-1.37
		l0.7-0.88c0.56,0.47,1.64,1.26,3.58,1.26c1.84,0,2.95-0.83,2.95-2.05c0-3.53-6.75-1.75-6.75-5.87c0-1.85,1.57-3.1,3.8-3.1
		c2.9,0,3.67,1.78,3.96,2.66L10.31,6.8C10.15,6.19,9.43,4.86,7.43,4.86z"/>
	<path d="M20.97,11.09c0,0.45-0.05,0.72-0.05,0.72H14.4c0.09,1.91,1.3,3.15,3.21,3.15c1.22,0,2.03-0.52,2.5-1.1l0.68,0.63
		c-0.77,0.95-1.94,1.39-3.26,1.39c-2.61,0-4.25-1.71-4.25-4.29c0-2.59,1.66-4.32,4.03-4.32C19.58,7.27,20.97,8.85,20.97,11.09z
		 M14.43,11h5.42v-0.07c0-1.69-1.01-2.74-2.54-2.74C15.77,8.19,14.63,9.3,14.43,11z"/>
	<path d="M30.17,10.11c0,0.31-0.05,0.54-0.05,0.54l-1.03,0.07c0.02-0.05,0.04-0.23,0.04-0.45c0-1.21-0.88-2.09-2.34-2.09
		c-1.8,0-3.02,1.35-3.02,3.4c0,2.02,1.19,3.37,3.17,3.37c1.42,0,2.2-0.61,2.63-1.1l0.65,0.68c-0.76,0.88-1.93,1.33-3.31,1.33
		c-2.57,0-4.23-1.73-4.23-4.27c0-2.57,1.67-4.34,4.1-4.34C28.85,7.27,30.17,8.49,30.17,10.11z"/>
	<path d="M40.28,11.59c0,2.56-1.67,4.29-4.2,4.29c-2.52,0-4.2-1.73-4.2-4.29s1.67-4.32,4.2-4.32C38.61,7.27,40.28,9.03,40.28,11.59z
		 M39.17,11.59c0-2-1.22-3.4-3.08-3.4s-3.1,1.4-3.1,3.4s1.24,3.37,3.1,3.37S39.17,13.59,39.17,11.59z"/>
	<path d="M49.99,10.62v5.17h-1.1v-5.17c0-1.44-0.88-2.43-2.34-2.43c-1.93,0-2.9,1.73-2.9,2.99v4.61h-1.1V7.36l0.77-0.04
		c0.11,0.7,0.16,1.6,0.16,2.14h0.04c0.45-1.15,1.49-2.2,3.19-2.2C48.73,7.27,49.99,8.64,49.99,10.62z"/>
	<path d="M60.37,3.11v12.68l-0.79,0.04c-0.07-0.68-0.14-1.64-0.13-2.16h-0.02c-0.45,1.22-1.58,2.21-3.31,2.21
		c-2.34,0-3.96-1.73-3.96-4.32c0-2.57,1.62-4.3,4.02-4.3c1.53,0,2.59,0.76,3.11,1.76V3.11H60.37z M59.29,11.93v-0.76
		c0-1.3-0.99-2.99-3.06-2.99c-1.78,0-2.95,1.35-2.95,3.37c0,2.03,1.19,3.39,3.02,3.39C58.3,14.94,59.29,13.23,59.29,11.93z"/>
	<path d="M67.14,3.81c0.22,0,0.37,0.05,0.46,0.14c0.09,0.1,0.13,0.26,0.13,0.49v10.3c0.07,0.1,0.18,0.14,0.32,0.14
		c0.2,0,0.31-0.13,0.31-0.4v-3.44c0-0.23,0.05-0.39,0.14-0.49c0.1-0.1,0.26-0.14,0.49-0.14h2.21c0.67,0,1.17,0.18,1.49,0.55
		c0.32,0.37,0.49,0.93,0.49,1.68v2.5c0,0.23-0.04,0.39-0.14,0.49c-0.09,0.1-0.24,0.14-0.46,0.14H63.5c-0.22,0-0.37-0.05-0.46-0.14
		c-0.09-0.1-0.13-0.26-0.13-0.49V5.87c0-0.3-0.02-0.52-0.07-0.66c-0.05-0.14-0.13-0.26-0.25-0.38c-0.12-0.11-0.32-0.27-0.61-0.46
		c-0.06-0.04-0.09-0.09-0.09-0.16V4c0-0.12,0.07-0.18,0.22-0.18H67.14z"/>
	<path d="M78.93,16c-1.69,0-2.98-0.41-3.86-1.22s-1.32-2-1.32-3.56s0.44-2.75,1.32-3.56c0.88-0.82,2.17-1.22,3.86-1.22
		s2.98,0.41,3.86,1.22c0.88,0.82,1.32,2,1.32,3.56s-0.44,2.75-1.32,3.56C81.91,15.59,80.62,16,78.93,16z M78.93,15.17
		c0.22,0,0.32-0.16,0.32-0.49V7.74c0-0.32-0.11-0.49-0.32-0.49c-0.22,0-0.32,0.16-0.32,0.49v6.95
		C78.6,15.01,78.71,15.17,78.93,15.17z"/>
	<path d="M84.51,8.21c-0.07-0.2-0.17-0.37-0.3-0.5c-0.13-0.13-0.32-0.28-0.57-0.43c-0.12-0.07-0.18-0.15-0.18-0.23V6.82
		c0-0.12,0.07-0.18,0.22-0.18h2.81c0.82,0,1.42,0.06,1.81,0.19c0.39,0.13,0.7,0.35,0.92,0.66c0.22,0.31,0.43,0.77,0.64,1.39
		l1.73,5.22c0.06,0.06,0.13,0.09,0.22,0.09c0.18,0,0.27-0.1,0.27-0.31c0-0.11-0.05-0.31-0.14-0.59L90.3,8.33
		c-0.08-0.26-0.16-0.46-0.22-0.59c-0.06-0.13-0.13-0.25-0.2-0.34c-0.11-0.13-0.18-0.22-0.21-0.26s-0.04-0.09-0.04-0.15V6.82
		c0-0.12,0.07-0.18,0.22-0.18h5.09c0.43,0,0.65,0.16,0.65,0.47c0,0.53-0.79,2.78-2.38,6.75c-0.26,0.66-0.48,1.11-0.64,1.34
		c-0.16,0.23-0.34,0.39-0.54,0.47c-0.2,0.08-0.49,0.12-0.89,0.12h-2.7c-0.42,0-0.74-0.07-0.95-0.21c-0.22-0.14-0.39-0.39-0.52-0.75
		L84.51,8.21z"/>
	<path d="M99.91,11.63c0,0.28,0.23,0.53,0.7,0.77c0.47,0.23,0.99,0.35,1.57,0.35c1.14,0,2.08-0.38,2.81-1.15
		c0.07-0.07,0.12-0.12,0.15-0.14c0.03-0.02,0.07-0.03,0.13-0.03h0.22c0.08,0,0.14,0.03,0.17,0.09c0.03,0.06,0.04,0.17,0.04,0.32
		c0,0.74-0.2,1.43-0.6,2.06c-0.4,0.63-0.97,1.14-1.71,1.52c-0.74,0.38-1.56,0.58-2.48,0.58c-0.97,0-1.85-0.2-2.63-0.59
		c-0.78-0.4-1.4-0.96-1.86-1.69c-0.46-0.73-0.69-1.57-0.69-2.5c0-0.92,0.22-1.75,0.65-2.47c0.43-0.72,1.05-1.29,1.84-1.7
		c0.8-0.41,1.73-0.62,2.8-0.62c0.8,0,1.53,0.13,2.17,0.38c0.64,0.25,1.15,0.61,1.52,1.08c0.37,0.47,0.56,1.01,0.56,1.62
		c0,0.78-0.28,1.43-0.85,1.94c-0.56,0.51-1.28,0.77-2.14,0.77c-0.86,0-1.57-0.29-2.11-0.86c-0.07,0-0.14,0.03-0.19,0.08
		C99.94,11.47,99.91,11.54,99.91,11.63z M100.45,10.39c0.07,0.1,0.17,0.14,0.29,0.14c0.22,0,0.32-0.12,0.32-0.36V7.61
		c0-0.24-0.11-0.36-0.32-0.36c-0.12,0-0.22,0.05-0.29,0.14V10.39z"/>
</g>
<g>
</g>
<g>
</g>
<g>
</g>
<g>
</g>
<g>
</g>
<g>
</g>
<g>
</g>
<g>
</g>
<g>
</g>
<g>
</g>
<g>
</g>
<g>
</g>
<g>
</g>
<g>
</g>
<g>
</g>
</svg>
